<?xml version="1.0" encoding="UTF-8"?>
<svg id="Layer_1" xmlns="http://www.w3.org/2000/svg" version="1.1" viewBox="0 0 630.13 191.13">
  <!-- Generator: Adobe Illustrator 30.2.1, SVG Export Plug-In . SVG Version: 2.1.1 Build 1)  -->
  <defs>
    <style>
      .st0 {
        fill: #2a2828;
      }

      .st1 {
        fill: #18b381;
      }
    </style>
  </defs>
  <g id="_5sOIH2.tif">
    <g>
      <path class="st1" d="M0,87.66v-14.92c.73-.47,1.25-1.24,1.48-2.57C7.01,37.22,36.39,13.16,70.01,14.64l-39.95,57.08c-1.02,1.46-.61,3.37.86,3.96l33.71.57-11.01,45.19c-.41,1.7.36,3.23,1.7,3.41.67.09,1.76-.16,2.58-1.34l49.46-70.94-37.88-1.09L82.39.22c4.12-.21,7.44-.56,10.62.56l-3.47,17.21c29.41,10.3,47.5,37.66,45.17,68.88-2.59,34.73-32.61,61.51-67.08,61.32C32.26,147.99,5.45,122.09-.01,87.65h.01Z"/>
      <path class="st0" d="M515.93,191.13h-.85c-1.82-2.54,1.41-5.2,1.42-8.06.02-5.62-4.33-10.16-5.04-15.18,1.06-.88,2.7-.64,3.65-.11,1.45.82,2.07,7.15,4.37,8.61,2.5-2.58,1.65-8.42,5.16-9.1.55-.11,2.64.21,2.36.91l-8.27,20.6-2.8,2.33h0Z"/>
      <path class="st1" d="M491.43,119.28c-15.15,19.92-41.76,23.32-61.39,8.15-18.72-14.47-22.05-41.88-7.85-60.42,14.4-18.79,40.92-23.21,61.9-8.47l.84-51.42c5.4-1.09,10.79-1.55,15.79.4l.2,83.06c.03,10.78-2.86,19.99-9.49,28.71h0ZM454.3,66.28c-15.91,1.86-26.27,15.71-24.2,30.75,1.96,14.25,15.37,24.95,30.31,23.16,14.44-1.73,25.68-14.82,23.95-29.92-1.61-14.05-14.44-25.82-30.06-24h0Z"/>
      <path class="st1" d="M333.32,127.99c-12.15-9.02-17.98-22.19-17.51-36.78.43-13.49,7.98-26.86,20.28-34.68,15.48-9.84,35.01-8.88,50.5,2.01l.7-51.69c5.96-.73,10.6-1.05,16.06.3l-.34,88.5c-.06,15.09-10.52,28.71-23.13,35.8-15.15,8.51-32.65,6.87-46.56-3.46ZM356.39,66.33c-15.88,1.95-25.85,16.03-23.79,30.72,2.04,14.59,15.5,24.92,30.23,23.14,14.97-1.8,25.52-14.9,23.88-30.06-1.54-14.25-14.55-25.74-30.31-23.8h-.01Z"/>
      <path class="st1" d="M576.48,113.36c5.49-2.65,13.14.03,19.65-.85-5.44,12.54-17.05,20.21-28.02,22.88-25.18,6.12-50.96-8.51-54.3-37.4-3.08-26.65,18.64-49.07,44.83-48.28,26.49.8,46.96,25.26,41.57,51.78l-68.71.27c3.04,9.87,10.99,15.52,18.53,17.65,9.88,2.79,18.02-.63,26.44-6.06h0ZM582.85,84.42c-4.75-12.81-15.93-18.58-27.18-18.06-10.37.48-20.87,7.3-24.07,18.63l51.25-.57Z"/>
      <path class="st1" d="M303.21,135.67c-5.49,1.89-10.83,1.33-15.94.39-.7-2.92.19-5.04-1.05-8.28-17.2,13.14-40.64,11.71-56.19-2.35-15.81-14.29-18.9-37.78-7.53-55.49,11.47-17.87,33.49-25.19,54.17-16.69,15.02,6.18,26.4,21.86,26.44,38.24l.11,44.17h0ZM256.63,66.29c-16.01,1.86-26.1,15.7-24.11,30.62,1.93,14.53,15.13,24.99,30.22,23.24,14.58-1.69,25.47-14.7,23.87-29.89-1.48-14.07-14.4-25.79-29.98-23.97h0Z"/>
      <path class="st1" d="M200.36,135.68c-5.55,1.88-10.8,1.5-16.63.25l.07-129c5.93-.87,10.76-1.08,16.44.14l.11,128.61h0Z"/>
      <path class="st1" d="M630.13,136.05c-5.51,1.28-10.55,1.04-16.43.16l-.06-126.1c0-6.04,11.76-3.71,16.38-2.98l.1,128.91h.01Z"/>
      <path class="st0" d="M563.02,161.44c.4-1.23,3.69-1.15,4-.12-1.42,6.74-4.04,13.6-5.82,20.16-.47,1.75-1.51,1.97-2.58,2.07-4.29.4-3.25-10.12-6.88-13.56-3.8,7.13-2.07,13.72-6.94,13.52-.67-.03-1.68-.46-2.02-1.77-1.75-6.74-4.54-13.55-5.85-20.34-.02-1.04,3.6-1.19,3.99.02l4.55,14.18c3.83-6.3,1.82-14.91,7.65-13.53,2.42.58,2.94,11.01,5.34,13.43l4.56-14.05h0Z"/>
      <path class="st0" d="M506.02,167.91c4.59,2.26,5.33,10.23,1.45,14.02-3.08,3.01-6.95,1.05-13.07,1.27l-.18-19.99c-.01-1.16.24-2.2.79-2.39s2.49-.49,2.8.17c.95,2.02.03,4.49.67,7.16,2.55-.92,4.91-1.55,7.54-.25h0ZM500.86,180c3.87.7,5.21-2.4,5-5.17-.18-2.43-2.03-4.95-5.32-3.99-2.16.63-2.52,3.22-2.52,4.83,0,1.46.59,3.92,2.84,4.33Z"/>
      <path class="st0" d="M582.45,183.4c-4.54-.81-14.13,2.69-14.33-4.66-.11-3.82,3.04-5.51,6.99-5.26.92.06,1.86,0,2.61-.14.68-.13.84-1.14.53-1.67-2.3-3.91-7.7,3.16-9.29-1.4,1.96-3.97,10.41-4.77,12.85-.15,2.13,4.03.62,9.1.65,13.28h-.01ZM578.25,178.73c.45-1.04,0-1.94-.69-2-.94-.08-3.83-.27-4.7.58-.76.74-.83,1.62-.35,2.21,1.18,1.46,4.92,1.1,5.74-.8h0Z"/>
      <path class="st0" d="M625.41,170.57c-1.68,3.17,1.29,12.38-1.92,12.93-4.8.83-.93-8.17-3.02-12.73-.42-.92-2.73-.51-2.56-2.02.14-1.26,1.74-1.1,2.52-2.09,1.38-1.74.9-4.38,2.26-5.25,1.67-1.08,4.08-1.51,5.89-.37,2.93,1.84-3.6,2.7-3.66,4.74s3.11.94,3.55,3c.31,1.45-1.45,1.35-3.06,1.81v-.02Z"/>
      <path class="st0" d="M596.39,181.33c-1.52,3.23-3.17,2.34-4.64,2.28-5.85-.23-2.1-11.01-4.17-12.74-.56-.94-2.58-.65-2.6-2.1-.02-1.33,1.85-1.06,2.51-2.16,1.01-1.71,1.68-5.36,4.18-4.46.98.82-.56,4.24,1.58,5.09.84.33,1.97.32,2.25.78.37.61.38,1.8-.51,2.09-1.2.38-2.16.58-2.54,1.09-.85,1.15-.16,2.66-.41,3.98-.64,3.41.6,5.17,4.36,6.17v-.02Z"/>
      <path class="st0" d="M605.94,183.73c-10.16-.52.09-11.22-8.73-15.04,6.08-2.18,2.71-7.61,7.32-6.36-.16,2.78.82,5.44,3.67,5.62.33.02.19,1.21.13,1.53-.1.54-1.81.21-2.44.96-1.84,2.21-1.9,7.5.16,9.64.97,1,2.44.48,2.43,1.61-.01,1.59-.61,2.14-2.54,2.04Z"/>
      <path class="st0" d="M615.07,168.21c.32,1.73,1.46,15.23-1.43,15.26-3.28.03-2.26-10.29-1.95-14.99.09-1.34,3.15-1.52,3.39-.26h-.01Z"/>
      <path class="st0" d="M611.73,161.27c.5-1.02,2.66-.72,3.32-.28.77.52.74,2.43.25,3.43-.41.84-2,.68-2.82.52-1.31-.24-1.52-2.11-.75-3.68h0Z"/>
    </g>
  </g>
</svg>